<?xml version="1.0" encoding="utf-8"?>
<svg version="1.1" id="Layer_1" xmlns="http://www.w3.org/2000/svg" xmlns:xlink="http://www.w3.org/1999/xlink" x="0px" y="0px"
	 viewBox="0 0 412 411" style="enable-background:new 0 0 412 411;" xml:space="preserve">
<g fill="currentColor">
		<path d="M103.23,383.171c85.821,49.549,191.294,4.382,247.946-93.743s43.032-212.051-42.789-261.599
			c98.125,56.653,131.745,182.125,75.093,280.25S201.355,439.824,103.23,383.171z"/>
		<path d="M103.23,383.171C17.409,333.623,3.788,219.697,60.441,121.572S222.566-21.72,308.387,27.829
			C210.262-28.824,84.79,4.796,28.137,102.921S5.104,326.519,103.23,383.171z"/>
		<path d="M103.23,383.171c27.848,16.078,127.266-60.937,171.642-137.798c47.913-82.988,62.477-200.824,33.515-217.545
			c60.905,35.164,49.423,151.067-0.097,236.839C265.843,338.187,164.135,418.335,103.23,383.171z"/>
		<path d="M103.23,383.171c-27.848-16.078-10.861-140.684,33.515-217.545c47.913-82.988,142.68-154.519,171.642-137.798
			C247.482-7.335,152.848,60.56,103.327,146.332C60.881,219.852,42.324,348.008,103.23,383.171z"/>
		<ellipse transform="matrix(0.5 -0.866 0.866 0.5 -75.064 280.9853)" cx="205.808" cy="205.5" rx="205.157" ry="21.223"/>
</g>
</svg>
